<?xml version="1.0" encoding="UTF-8"?>
<svg width="700px" height="700px" viewBox="0 0 700 700" version="1.1" xmlns="http://www.w3.org/2000/svg" xmlns:xlink="http://www.w3.org/1999/xlink">
    <title>Artboard Copy 30</title>
    <g id="Artboard-Copy-30" stroke="none" stroke-width="1" fill="none" fill-rule="evenodd">
        <rect id="Rectangle" fill="#FFF7F0" x="0" y="0" width="700" height="700"></rect>
        <g id="metamask" transform="translate(125.095178, 141.500000)" fill-rule="nonzero" stroke-linecap="round" stroke-linejoin="round">
            <polygon id="Path" stroke="#E2761B" fill="#E2761B" points="427.40736 0 251.893401 130.356599 284.350254 53.4479695"></polygon>
            <path d="M22.2258883,0 L196.32868,131.591371 L165.459391,53.4479695 L22.2258883,0 Z M364.257614,302.166244 L317.51269,373.782995 L417.529188,401.300761 L446.281726,303.753807 L364.257614,302.166244 Z M3.70431472,303.753807 L32.2804569,401.300761 L132.296954,373.782995 L85.5520305,302.166244 L3.70431472,303.753807 Z" id="Shape" stroke="#E4761B" fill="#E4761B"></path>
            <path d="M126.652284,181.158629 L98.7817259,223.317259 L198.09264,227.727157 L194.564721,121.007614 L126.652284,181.158629 Z M322.980964,181.158629 L254.186548,119.772843 L251.893401,227.727157 L351.027919,223.317259 L322.980964,181.158629 Z M132.296954,373.782995 L191.918782,344.677665 L140.411168,304.459391 L132.296954,373.782995 Z M257.714467,344.677665 L317.51269,373.782995 L309.222081,304.459391 L257.714467,344.677665 Z" id="Shape" stroke="#E4761B" fill="#E4761B"></path>
            <path d="M317.51269,373.782995 L257.714467,344.677665 L262.477157,383.661168 L261.94797,400.06599 L317.51269,373.782995 Z M132.296954,373.782995 L187.861675,400.06599 L187.508883,383.661168 L191.918782,344.677665 L132.296954,373.782995 Z" id="Shape" stroke="#D7C1B3" fill="#D7C1B3"></path>
            <path d="M188.743655,278.705584 L139,264.064721 L174.102792,248.01269 L188.743655,278.705584 Z M260.889594,278.705584 L275.530457,248.01269 L310.809645,264.064721 L260.889594,278.705584 Z" id="Shape" stroke="#233447" fill="#233447"></path>
            <path d="M132.296954,373.782995 L140.763959,302.166244 L85.5520305,303.753807 L132.296954,373.782995 Z M309.045685,302.166244 L317.51269,373.782995 L364.257614,303.753807 L309.045685,302.166244 Z M351.027919,223.317259 L251.893401,227.727157 L261.06599,278.705584 L275.706853,248.01269 L310.986041,264.064721 L351.027919,223.317259 Z M139,264.064721 L174.279188,248.01269 L188.743655,278.705584 L198.09264,227.727157 L98.7817259,223.317259 L139,264.064721 Z" id="Shape" stroke="#CD6116" fill="#CD6116"></path>
            <path d="M98.7817259,223.317259 L140.411168,304.459391 L139,264.064721 L98.7817259,223.317259 Z M310.986041,264.064721 L309.222081,304.459391 L351.027919,223.317259 L310.986041,264.064721 Z M198.09264,227.727157 L188.743655,278.705584 L200.385787,338.856599 L203.031726,259.654822 L198.09264,227.727157 Z M251.893401,227.727157 L247.130711,259.478426 L249.247462,338.856599 L261.06599,278.705584 L251.893401,227.727157 Z" id="Shape" stroke="#E4751F" fill="#E4751F"></path>
            <path d="M261.06599,278.705584 L249.247462,338.856599 L257.714467,344.677665 L309.222081,304.459391 L310.986041,264.064721 L261.06599,278.705584 Z M139,264.064721 L140.411168,304.459391 L191.918782,344.677665 L200.385787,338.856599 L188.743655,278.705584 L139,264.064721 Z" id="Shape" stroke="#F6851B" fill="#F6851B"></path>
            <polygon id="Path" stroke="#C0AD9E" fill="#C0AD9E" points="261.94797 400.06599 262.477157 383.661168 258.067259 379.780457 191.56599 379.780457 187.508883 383.661168 187.861675 400.06599 132.296954 373.782995 151.700508 389.658629 191.036802 417 258.596447 417 298.109137 389.658629 317.51269 373.782995"></polygon>
            <polygon id="Path" stroke="#161616" fill="#161616" points="257.714467 344.677665 249.247462 338.856599 200.385787 338.856599 191.918782 344.677665 187.508883 383.661168 191.56599 379.780457 258.067259 379.780457 262.477157 383.661168"></polygon>
            <path d="M434.81599,138.823604 L449.809645,66.8540609 L427.40736,0 L257.714467,125.946701 L322.980964,181.158629 L415.236041,208.147208 L435.69797,184.333756 L426.878173,177.983503 L440.989848,165.106599 L430.053299,156.639594 L444.164975,145.879442 L434.81599,138.823604 Z M0,66.8540609 L14.9936548,138.823604 L5.46827411,145.879442 L19.5799492,156.639594 L8.81979695,165.106599 L22.9314721,177.983503 L14.1116751,184.333756 L34.3972081,208.147208 L126.652284,181.158629 L191.918782,125.946701 L22.2258883,0 L0,66.8540609 Z" id="Shape" stroke="#763D16" fill="#763D16"></path>
            <path d="M415.236041,208.147208 L322.980964,181.158629 L351.027919,223.317259 L309.222081,304.459391 L364.257614,303.753807 L446.281726,303.753807 L415.236041,208.147208 Z M126.652284,181.158629 L34.3972081,208.147208 L3.70431472,303.753807 L85.5520305,303.753807 L140.411168,304.459391 L98.7817259,223.317259 L126.652284,181.158629 Z M251.893401,227.727157 L257.714467,125.946701 L284.52665,53.4479695 L165.459391,53.4479695 L191.918782,125.946701 L198.09264,227.727157 L200.209391,259.831218 L200.385787,338.856599 L249.247462,338.856599 L249.600254,259.831218 L251.893401,227.727157 Z" id="Shape" stroke="#F6851B" fill="#F6851B"></path>
        </g>
    </g>
</svg>